<svg width="41" height="40" viewBox="0 0 41 40" fill="none" xmlns="http://www.w3.org/2000/svg">
<path d="M17.272 30.9447C17.868 27.4441 20.5839 25.2237 24.6998 25.2237H35.3957C39.3876 25.2237 40.2356 22.6357 40.2356 22.6357C39.6396 26.1363 38.0156 28.3568 33.8997 28.3568H22.9279C18.388 28.3568 17.272 30.9447 17.272 30.9447Z" fill="#DF2325"/>
<path d="M35.2113 29.0244C34.3033 30.3717 33.2513 30.4902 31.2553 30.4902C29.2593 30.4902 26.9154 30.5337 23.6714 30.4902C20.1795 30.4428 17.4835 31.9995 17.2635 35.3855C18.1715 34.0383 19.3515 33.7933 21.3475 33.7933C23.3434 33.7933 24.5434 33.7498 27.7874 33.7933C31.2753 33.8447 34.0033 32.3235 35.2113 29.0244Z" fill="#EE4523"/>
<path d="M17.2714 38.1948C17.2714 36.8475 19.1393 36.1245 21.3713 36.1245C23.6033 36.1245 27.9232 36.4168 29.7592 35.1367C29.2592 36.6144 24.6992 40.0004 20.1433 40.0004C18.0793 40.0004 17.2714 39.0166 17.2714 38.1948Z" fill="#FE5F3E"/>
<path d="M9.1676 17.0609C12.7115 17.6496 14.9595 20.3324 14.9595 24.3979V34.9629C14.9595 38.9061 17.5795 39.7437 17.5795 39.7437C14.0355 39.155 11.7876 37.5509 11.7876 33.4853V22.6476C11.7876 18.1593 9.1676 17.0609 9.1676 17.0609Z" fill="#172C4F"/>
<path d="M11.1105 34.7769C9.74657 33.88 9.62657 32.8409 9.62657 30.8693C9.62657 28.8978 9.58257 26.5825 9.62657 23.3782C9.67457 19.929 8.0986 17.266 4.67065 17.0487C6.03463 17.9456 6.28263 19.1111 6.28263 21.0827C6.28263 23.0542 6.32663 24.2395 6.28263 27.4438C6.23463 30.8931 7.7706 33.5837 11.1105 34.7769Z" fill="#264A74"/>
<path d="M1.83197 17.0617C3.19595 17.0617 3.92793 18.9068 3.92793 21.1115C3.92793 23.3122 3.63194 27.5833 4.92792 29.3968C3.42794 28.9029 0 24.3987 0 19.8946C0 17.8559 0.999984 17.0617 1.83197 17.0617Z" fill="#345A87"/>
<path d="M23.2281 9.05566C22.6321 12.5563 19.9162 14.7767 15.8002 14.7767H5.10042C1.10848 14.7767 0.260498 17.3646 0.260498 17.3646C0.856488 13.864 2.48046 11.6436 6.59639 11.6436H17.5682C22.1121 11.6436 23.2281 9.05566 23.2281 9.05566Z" fill="#DF2325"/>
<path d="M5.28821 10.9759C6.19619 9.62858 7.24818 9.51005 9.24414 9.51005C11.2401 9.51005 13.5841 9.46659 16.828 9.51005C20.32 9.55746 23.0159 8.00076 23.2359 4.61475C22.3279 5.96204 21.1479 6.207 19.152 6.207C17.156 6.207 15.956 6.25046 12.7121 6.207C9.22414 6.15564 6.49619 7.67678 5.28821 10.9759Z" fill="#EE4523"/>
<path d="M23.2292 1.80561C23.2292 3.1529 21.3613 3.87594 19.1293 3.87594C16.8974 3.87594 12.5774 3.58357 10.7415 4.8637C11.2414 3.38602 15.8014 0 20.3573 0C22.4213 0 23.2292 0.983799 23.2292 1.80561Z" fill="#FE5F3E"/>
<path d="M31.3309 22.9396C27.787 22.3509 25.539 19.6682 25.539 15.6026V5.03756C25.539 1.09445 22.9191 0.256836 22.9191 0.256836C26.463 0.845537 28.711 2.44965 28.711 6.51524V17.3529C28.711 21.8412 31.3309 22.9396 31.3309 22.9396Z" fill="#172C4F"/>
<path d="M29.387 5.22314C30.7509 6.12002 30.8709 7.15914 30.8709 9.1307C30.8709 11.1023 30.9149 13.4175 30.8709 16.6218C30.8229 20.071 32.3989 22.734 35.8269 22.9513C34.4629 22.0545 34.2149 20.8889 34.2149 18.9173C34.2149 16.9458 34.1709 15.7605 34.2149 12.5562C34.2629 9.10699 32.7269 6.41635 29.387 5.22314Z" fill="#264A74"/>
<path d="M38.6664 22.9396C37.3024 22.9396 36.5704 21.0944 36.5704 18.8898C36.5704 16.6891 36.8664 12.418 35.5704 10.6045C37.0664 11.0984 40.4944 15.6025 40.4944 20.1027C40.4984 22.1454 39.4984 22.9396 38.6664 22.9396Z" fill="#345A87"/>
</svg>
